<mxfile host="app.diagrams.net" modified="2024-01-30T20:15:51.471Z" agent="Mozilla/5.0 (Macintosh; Intel Mac OS X 10_15_7) AppleWebKit/537.36 (KHTML, like Gecko) Chrome/120.0.0.0 Safari/537.36" etag="M84_slwvHglgltIrytEN" version="23.0.2" type="github">
  <diagram id="C5RBs43oDa-KdzZeNtuy" name="Page-1">
    <mxGraphModel dx="1314" dy="831" grid="0" gridSize="10" guides="1" tooltips="1" connect="1" arrows="1" fold="1" page="1" pageScale="1" pageWidth="2000" pageHeight="2000" math="0" shadow="0">
      <root>
        <mxCell id="WIyWlLk6GJQsqaUBKTNV-0" />
        <mxCell id="WIyWlLk6GJQsqaUBKTNV-1" parent="WIyWlLk6GJQsqaUBKTNV-0" />
        <mxCell id="B1hULCG9IB6x-jt5RpFV-0" value="Person" style="swimlane;fontStyle=2;align=center;verticalAlign=top;childLayout=stackLayout;horizontal=1;startSize=26;horizontalStack=0;resizeParent=1;resizeLast=0;collapsible=1;marginBottom=0;rounded=0;shadow=0;strokeWidth=1;" parent="WIyWlLk6GJQsqaUBKTNV-1" vertex="1">
          <mxGeometry x="770" y="33" width="300" height="242" as="geometry">
            <mxRectangle x="230" y="140" width="160" height="26" as="alternateBounds" />
          </mxGeometry>
        </mxCell>
        <mxCell id="B1hULCG9IB6x-jt5RpFV-1" value="# firstName" style="text;align=left;verticalAlign=top;spacingLeft=4;spacingRight=4;overflow=hidden;rotatable=0;points=[[0,0.5],[1,0.5]];portConstraint=eastwest;" parent="B1hULCG9IB6x-jt5RpFV-0" vertex="1">
          <mxGeometry y="26" width="300" height="26" as="geometry" />
        </mxCell>
        <mxCell id="B1hULCG9IB6x-jt5RpFV-45" value="# lastName" style="text;align=left;verticalAlign=top;spacingLeft=4;spacingRight=4;overflow=hidden;rotatable=0;points=[[0,0.5],[1,0.5]];portConstraint=eastwest;rounded=0;shadow=0;html=0;" parent="B1hULCG9IB6x-jt5RpFV-0" vertex="1">
          <mxGeometry y="52" width="300" height="26" as="geometry" />
        </mxCell>
        <mxCell id="B1hULCG9IB6x-jt5RpFV-2" value="# phoneNumber" style="text;align=left;verticalAlign=top;spacingLeft=4;spacingRight=4;overflow=hidden;rotatable=0;points=[[0,0.5],[1,0.5]];portConstraint=eastwest;rounded=0;shadow=0;html=0;" parent="B1hULCG9IB6x-jt5RpFV-0" vertex="1">
          <mxGeometry y="78" width="300" height="26" as="geometry" />
        </mxCell>
        <mxCell id="B1hULCG9IB6x-jt5RpFV-3" value="# OTPCode" style="text;align=left;verticalAlign=top;spacingLeft=4;spacingRight=4;overflow=hidden;rotatable=0;points=[[0,0.5],[1,0.5]];portConstraint=eastwest;rounded=0;shadow=0;html=0;" parent="B1hULCG9IB6x-jt5RpFV-0" vertex="1">
          <mxGeometry y="104" width="300" height="26" as="geometry" />
        </mxCell>
        <mxCell id="B1hULCG9IB6x-jt5RpFV-118" value="# OTPIssuedTime" style="text;align=left;verticalAlign=top;spacingLeft=4;spacingRight=4;overflow=hidden;rotatable=0;points=[[0,0.5],[1,0.5]];portConstraint=eastwest;rounded=0;shadow=0;html=0;" parent="B1hULCG9IB6x-jt5RpFV-0" vertex="1">
          <mxGeometry y="130" width="300" height="26" as="geometry" />
        </mxCell>
        <mxCell id="B1hULCG9IB6x-jt5RpFV-4" value="" style="line;html=1;strokeWidth=1;align=left;verticalAlign=middle;spacingTop=-1;spacingLeft=3;spacingRight=3;rotatable=0;labelPosition=right;points=[];portConstraint=eastwest;" parent="B1hULCG9IB6x-jt5RpFV-0" vertex="1">
          <mxGeometry y="156" width="300" height="8" as="geometry" />
        </mxCell>
        <mxCell id="B1hULCG9IB6x-jt5RpFV-43" value="+ sendOTPCode(phoneNumber)" style="text;align=left;verticalAlign=top;spacingLeft=4;spacingRight=4;overflow=hidden;rotatable=0;points=[[0,0.5],[1,0.5]];portConstraint=eastwest;rounded=0;shadow=0;html=0;fontStyle=4" parent="B1hULCG9IB6x-jt5RpFV-0" vertex="1">
          <mxGeometry y="164" width="300" height="26" as="geometry" />
        </mxCell>
        <mxCell id="B1hULCG9IB6x-jt5RpFV-44" value="+ verifyOTPCode(phoneNumber, otpCode)" style="text;align=left;verticalAlign=top;spacingLeft=4;spacingRight=4;overflow=hidden;rotatable=0;points=[[0,0.5],[1,0.5]];portConstraint=eastwest;rounded=0;shadow=0;html=0;fontStyle=4" parent="B1hULCG9IB6x-jt5RpFV-0" vertex="1">
          <mxGeometry y="190" width="300" height="26" as="geometry" />
        </mxCell>
        <mxCell id="B1hULCG9IB6x-jt5RpFV-117" value="+ editPhoneNumber(newPhone, otpCode)" style="text;align=left;verticalAlign=top;spacingLeft=4;spacingRight=4;overflow=hidden;rotatable=0;points=[[0,0.5],[1,0.5]];portConstraint=eastwest;fontStyle=0" parent="B1hULCG9IB6x-jt5RpFV-0" vertex="1">
          <mxGeometry y="216" width="300" height="26" as="geometry" />
        </mxCell>
        <object label="Patient" id="B1hULCG9IB6x-jt5RpFV-6">
          <mxCell style="swimlane;fontStyle=0;align=center;verticalAlign=top;childLayout=stackLayout;horizontal=1;startSize=26;horizontalStack=0;resizeParent=1;resizeLast=0;collapsible=1;marginBottom=0;rounded=0;shadow=0;strokeWidth=1;" parent="WIyWlLk6GJQsqaUBKTNV-1" vertex="1">
            <mxGeometry x="395" y="313" width="326" height="220" as="geometry">
              <mxRectangle x="130" y="380" width="160" height="26" as="alternateBounds" />
            </mxGeometry>
          </mxCell>
        </object>
        <mxCell id="B1hULCG9IB6x-jt5RpFV-10" value="- nationalCode" style="text;align=left;verticalAlign=top;spacingLeft=4;spacingRight=4;overflow=hidden;rotatable=0;points=[[0,0.5],[1,0.5]];portConstraint=eastwest;fontStyle=0" parent="B1hULCG9IB6x-jt5RpFV-6" vertex="1">
          <mxGeometry y="26" width="326" height="28" as="geometry" />
        </mxCell>
        <mxCell id="B1hULCG9IB6x-jt5RpFV-114" value="- address" style="text;align=left;verticalAlign=top;spacingLeft=4;spacingRight=4;overflow=hidden;rotatable=0;points=[[0,0.5],[1,0.5]];portConstraint=eastwest;fontStyle=0" parent="B1hULCG9IB6x-jt5RpFV-6" vertex="1">
          <mxGeometry y="54" width="326" height="28" as="geometry" />
        </mxCell>
        <mxCell id="B1hULCG9IB6x-jt5RpFV-9" value="" style="line;html=1;strokeWidth=1;align=left;verticalAlign=middle;spacingTop=-1;spacingLeft=3;spacingRight=3;rotatable=0;labelPosition=right;points=[];portConstraint=eastwest;" parent="B1hULCG9IB6x-jt5RpFV-6" vertex="1">
          <mxGeometry y="82" width="326" height="8" as="geometry" />
        </mxCell>
        <mxCell id="B1hULCG9IB6x-jt5RpFV-41" value="+ login(phoneNumber, nationalCode, otpCode)" style="text;align=left;verticalAlign=top;spacingLeft=4;spacingRight=4;overflow=hidden;rotatable=0;points=[[0,0.5],[1,0.5]];portConstraint=eastwest;fontStyle=4" parent="B1hULCG9IB6x-jt5RpFV-6" vertex="1">
          <mxGeometry y="90" width="326" height="26" as="geometry" />
        </mxCell>
        <mxCell id="B1hULCG9IB6x-jt5RpFV-115" value="+ editProfile(firstName, lastName, address)" style="text;align=left;verticalAlign=top;spacingLeft=4;spacingRight=4;overflow=hidden;rotatable=0;points=[[0,0.5],[1,0.5]];portConstraint=eastwest;fontStyle=0" parent="B1hULCG9IB6x-jt5RpFV-6" vertex="1">
          <mxGeometry y="116" width="326" height="26" as="geometry" />
        </mxCell>
        <mxCell id="B1hULCG9IB6x-jt5RpFV-156" value="+ makeAppointment(laboratory, appointmentInterval, date)" style="text;align=left;verticalAlign=top;spacingLeft=4;spacingRight=4;overflow=hidden;rotatable=0;points=[[0,0.5],[1,0.5]];portConstraint=eastwest;fontStyle=0" parent="B1hULCG9IB6x-jt5RpFV-6" vertex="1">
          <mxGeometry y="142" width="326" height="26" as="geometry" />
        </mxCell>
        <mxCell id="B1hULCG9IB6x-jt5RpFV-168" value="+ getMyAppointments()" style="text;align=left;verticalAlign=top;spacingLeft=4;spacingRight=4;overflow=hidden;rotatable=0;points=[[0,0.5],[1,0.5]];portConstraint=eastwest;fontStyle=0" parent="B1hULCG9IB6x-jt5RpFV-6" vertex="1">
          <mxGeometry y="168" width="326" height="26" as="geometry" />
        </mxCell>
        <mxCell id="tkdqBaB6u73wmL8V0kCm-1" value="+ getMyTests()" style="text;align=left;verticalAlign=top;spacingLeft=4;spacingRight=4;overflow=hidden;rotatable=0;points=[[0,0.5],[1,0.5]];portConstraint=eastwest;fontStyle=0" parent="B1hULCG9IB6x-jt5RpFV-6" vertex="1">
          <mxGeometry y="194" width="326" height="26" as="geometry" />
        </mxCell>
        <mxCell id="B1hULCG9IB6x-jt5RpFV-12" value="" style="endArrow=block;endSize=10;endFill=0;shadow=0;strokeWidth=1;rounded=0;edgeStyle=elbowEdgeStyle;elbow=vertical;" parent="WIyWlLk6GJQsqaUBKTNV-1" source="B1hULCG9IB6x-jt5RpFV-6" target="B1hULCG9IB6x-jt5RpFV-0" edge="1">
          <mxGeometry width="160" relative="1" as="geometry">
            <mxPoint x="790" y="131" as="sourcePoint" />
            <mxPoint x="790" y="131" as="targetPoint" />
          </mxGeometry>
        </mxCell>
        <mxCell id="B1hULCG9IB6x-jt5RpFV-13" value="LabManager" style="swimlane;fontStyle=0;align=center;verticalAlign=top;childLayout=stackLayout;horizontal=1;startSize=26;horizontalStack=0;resizeParent=1;resizeLast=0;collapsible=1;marginBottom=0;rounded=0;shadow=0;strokeWidth=1;" parent="WIyWlLk6GJQsqaUBKTNV-1" vertex="1">
          <mxGeometry x="837" y="524" width="244" height="179" as="geometry">
            <mxRectangle x="340" y="380" width="170" height="26" as="alternateBounds" />
          </mxGeometry>
        </mxCell>
        <mxCell id="B1hULCG9IB6x-jt5RpFV-72" value="- laboratory" style="text;align=left;verticalAlign=top;spacingLeft=4;spacingRight=4;overflow=hidden;rotatable=0;points=[[0,0.5],[1,0.5]];portConstraint=eastwest;" parent="B1hULCG9IB6x-jt5RpFV-13" vertex="1">
          <mxGeometry y="26" width="244" height="26" as="geometry" />
        </mxCell>
        <mxCell id="B1hULCG9IB6x-jt5RpFV-83" value="- hasPaid" style="text;align=left;verticalAlign=top;spacingLeft=4;spacingRight=4;overflow=hidden;rotatable=0;points=[[0,0.5],[1,0.5]];portConstraint=eastwest;" parent="B1hULCG9IB6x-jt5RpFV-13" vertex="1">
          <mxGeometry y="52" width="244" height="26" as="geometry" />
        </mxCell>
        <mxCell id="B1hULCG9IB6x-jt5RpFV-15" value="" style="line;html=1;strokeWidth=1;align=left;verticalAlign=middle;spacingTop=-1;spacingLeft=3;spacingRight=3;rotatable=0;labelPosition=right;points=[];portConstraint=eastwest;" parent="B1hULCG9IB6x-jt5RpFV-13" vertex="1">
          <mxGeometry y="78" width="244" height="8" as="geometry" />
        </mxCell>
        <mxCell id="B1hULCG9IB6x-jt5RpFV-73" value="+ signup(firstName, lastName, phoneNumber, username, password)" style="text;align=left;verticalAlign=top;spacingLeft=4;spacingRight=4;overflow=hidden;rotatable=0;points=[[0,0.5],[1,0.5]];portConstraint=eastwest;fontStyle=4;whiteSpace=wrap;" parent="B1hULCG9IB6x-jt5RpFV-13" vertex="1">
          <mxGeometry y="86" width="244" height="40" as="geometry" />
        </mxCell>
        <mxCell id="B1hULCG9IB6x-jt5RpFV-84" value="+ pay()" style="text;align=left;verticalAlign=top;spacingLeft=4;spacingRight=4;overflow=hidden;rotatable=0;points=[[0,0.5],[1,0.5]];portConstraint=eastwest;fontStyle=0" parent="B1hULCG9IB6x-jt5RpFV-13" vertex="1">
          <mxGeometry y="126" width="244" height="25" as="geometry" />
        </mxCell>
        <mxCell id="B1hULCG9IB6x-jt5RpFV-17" value="Technician" style="swimlane;fontStyle=0;align=center;verticalAlign=top;childLayout=stackLayout;horizontal=1;startSize=26;horizontalStack=0;resizeParent=1;resizeLast=0;collapsible=1;marginBottom=0;rounded=0;shadow=0;strokeWidth=1;" parent="WIyWlLk6GJQsqaUBKTNV-1" vertex="1">
          <mxGeometry x="1239" y="767" width="186" height="172" as="geometry">
            <mxRectangle x="550" y="140" width="160" height="26" as="alternateBounds" />
          </mxGeometry>
        </mxCell>
        <mxCell id="B1hULCG9IB6x-jt5RpFV-23" value="" style="line;html=1;strokeWidth=1;align=left;verticalAlign=middle;spacingTop=-1;spacingLeft=3;spacingRight=3;rotatable=0;labelPosition=right;points=[];portConstraint=eastwest;" parent="B1hULCG9IB6x-jt5RpFV-17" vertex="1">
          <mxGeometry y="26" width="186" height="8" as="geometry" />
        </mxCell>
        <mxCell id="B1hULCG9IB6x-jt5RpFV-25" value="+ addPatientTest(appointment, testType, status)" style="text;align=left;verticalAlign=top;spacingLeft=4;spacingRight=4;overflow=hidden;rotatable=0;points=[[0,0.5],[1,0.5]];portConstraint=eastwest;whiteSpace=wrap;" parent="B1hULCG9IB6x-jt5RpFV-17" vertex="1">
          <mxGeometry y="34" width="186" height="41" as="geometry" />
        </mxCell>
        <mxCell id="xIZF9LZx-T_ojvfy10qX-1" value="+ setTestResult(test, result)" style="text;align=left;verticalAlign=top;spacingLeft=4;spacingRight=4;overflow=hidden;rotatable=0;points=[[0,0.5],[1,0.5]];portConstraint=eastwest;whiteSpace=wrap;" parent="B1hULCG9IB6x-jt5RpFV-17" vertex="1">
          <mxGeometry y="75" width="186" height="27" as="geometry" />
        </mxCell>
        <mxCell id="XG-66urUs-drCNg23yl3-3" value="+ getMyTests()" style="text;align=left;verticalAlign=top;spacingLeft=4;spacingRight=4;overflow=hidden;rotatable=0;points=[[0,0.5],[1,0.5]];portConstraint=eastwest;whiteSpace=wrap;" parent="B1hULCG9IB6x-jt5RpFV-17" vertex="1">
          <mxGeometry y="102" width="186" height="27" as="geometry" />
        </mxCell>
        <mxCell id="XG-66urUs-drCNg23yl3-16" value="+ sendTestToPathologist(test, pathologist)" style="text;align=left;verticalAlign=top;spacingLeft=4;spacingRight=4;overflow=hidden;rotatable=0;points=[[0,0.5],[1,0.5]];portConstraint=eastwest;whiteSpace=wrap;" parent="B1hULCG9IB6x-jt5RpFV-17" vertex="1">
          <mxGeometry y="129" width="186" height="37" as="geometry" />
        </mxCell>
        <mxCell id="ns7HTszegkIX43-I1-Sy-0" value="Pathologist" style="swimlane;fontStyle=0;align=center;verticalAlign=top;childLayout=stackLayout;horizontal=1;startSize=26;horizontalStack=0;resizeParent=1;resizeLast=0;collapsible=1;marginBottom=0;rounded=0;shadow=0;strokeWidth=1;" parent="WIyWlLk6GJQsqaUBKTNV-1" vertex="1">
          <mxGeometry x="1574" y="767" width="200" height="154" as="geometry">
            <mxRectangle x="550" y="140" width="160" height="26" as="alternateBounds" />
          </mxGeometry>
        </mxCell>
        <mxCell id="ns7HTszegkIX43-I1-Sy-6" value="" style="line;html=1;strokeWidth=1;align=left;verticalAlign=middle;spacingTop=-1;spacingLeft=3;spacingRight=3;rotatable=0;labelPosition=right;points=[];portConstraint=eastwest;" parent="ns7HTszegkIX43-I1-Sy-0" vertex="1">
          <mxGeometry y="26" width="200" height="8" as="geometry" />
        </mxCell>
        <mxCell id="XG-66urUs-drCNg23yl3-13" value="+ getMyTests()" style="text;align=left;verticalAlign=top;spacingLeft=4;spacingRight=4;overflow=hidden;rotatable=0;points=[[0,0.5],[1,0.5]];portConstraint=eastwest;whiteSpace=wrap;" parent="ns7HTszegkIX43-I1-Sy-0" vertex="1">
          <mxGeometry y="34" width="200" height="29" as="geometry" />
        </mxCell>
        <mxCell id="ns7HTszegkIX43-I1-Sy-7" value="+ retakeTest(test)" style="text;align=left;verticalAlign=top;spacingLeft=4;spacingRight=4;overflow=hidden;rotatable=0;points=[[0,0.5],[1,0.5]];portConstraint=eastwest;" parent="ns7HTszegkIX43-I1-Sy-0" vertex="1">
          <mxGeometry y="63" width="200" height="26" as="geometry" />
        </mxCell>
        <mxCell id="ns7HTszegkIX43-I1-Sy-8" value="+ provideDiagnosis(test, diagnosis)" style="text;align=left;verticalAlign=top;spacingLeft=4;spacingRight=4;overflow=hidden;rotatable=0;points=[[0,0.5],[1,0.5]];portConstraint=eastwest;" parent="ns7HTszegkIX43-I1-Sy-0" vertex="1">
          <mxGeometry y="89" width="200" height="26" as="geometry" />
        </mxCell>
        <mxCell id="B1hULCG9IB6x-jt5RpFV-31" value="User" style="swimlane;fontStyle=0;align=center;verticalAlign=top;childLayout=stackLayout;horizontal=1;startSize=26;horizontalStack=0;resizeParent=1;resizeLast=0;collapsible=1;marginBottom=0;rounded=0;shadow=0;strokeWidth=1;" parent="WIyWlLk6GJQsqaUBKTNV-1" vertex="1">
          <mxGeometry x="1086" y="320" width="354" height="136" as="geometry">
            <mxRectangle x="340" y="380" width="170" height="26" as="alternateBounds" />
          </mxGeometry>
        </mxCell>
        <mxCell id="B1hULCG9IB6x-jt5RpFV-32" value="# username" style="text;align=left;verticalAlign=top;spacingLeft=4;spacingRight=4;overflow=hidden;rotatable=0;points=[[0,0.5],[1,0.5]];portConstraint=eastwest;" parent="B1hULCG9IB6x-jt5RpFV-31" vertex="1">
          <mxGeometry y="26" width="354" height="26" as="geometry" />
        </mxCell>
        <mxCell id="B1hULCG9IB6x-jt5RpFV-34" value="# password" style="text;align=left;verticalAlign=top;spacingLeft=4;spacingRight=4;overflow=hidden;rotatable=0;points=[[0,0.5],[1,0.5]];portConstraint=eastwest;" parent="B1hULCG9IB6x-jt5RpFV-31" vertex="1">
          <mxGeometry y="52" width="354" height="26" as="geometry" />
        </mxCell>
        <mxCell id="B1hULCG9IB6x-jt5RpFV-33" value="" style="line;html=1;strokeWidth=1;align=left;verticalAlign=middle;spacingTop=-1;spacingLeft=3;spacingRight=3;rotatable=0;labelPosition=right;points=[];portConstraint=eastwest;" parent="B1hULCG9IB6x-jt5RpFV-31" vertex="1">
          <mxGeometry y="78" width="354" height="8" as="geometry" />
        </mxCell>
        <mxCell id="B1hULCG9IB6x-jt5RpFV-42" value="+ login(username, password)" style="text;align=left;verticalAlign=top;spacingLeft=4;spacingRight=4;overflow=hidden;rotatable=0;points=[[0,0.5],[1,0.5]];portConstraint=eastwest;fontStyle=4" parent="B1hULCG9IB6x-jt5RpFV-31" vertex="1">
          <mxGeometry y="86" width="354" height="25" as="geometry" />
        </mxCell>
        <mxCell id="XG-66urUs-drCNg23yl3-0" value="+ changePassword(newPassword, otpCode)" style="text;align=left;verticalAlign=top;spacingLeft=4;spacingRight=4;overflow=hidden;rotatable=0;points=[[0,0.5],[1,0.5]];portConstraint=eastwest;fontStyle=0" parent="B1hULCG9IB6x-jt5RpFV-31" vertex="1">
          <mxGeometry y="111" width="354" height="25" as="geometry" />
        </mxCell>
        <mxCell id="B1hULCG9IB6x-jt5RpFV-99" style="edgeStyle=orthogonalEdgeStyle;rounded=0;orthogonalLoop=1;jettySize=auto;html=1;entryX=1;entryY=0.5;entryDx=0;entryDy=0;endArrow=none;endFill=0;endSize=15;exitX=0;exitY=0.5;exitDx=0;exitDy=0;startSize=15;startArrow=diamondThin;startFill=0;" parent="WIyWlLk6GJQsqaUBKTNV-1" source="ns7HTszegkIX43-I1-Sy-21" target="B1hULCG9IB6x-jt5RpFV-94" edge="1">
          <mxGeometry relative="1" as="geometry" />
        </mxCell>
        <mxCell id="B1hULCG9IB6x-jt5RpFV-108" value="&lt;font style=&quot;font-size: 15px;&quot;&gt;1&lt;/font&gt;" style="edgeLabel;html=1;align=center;verticalAlign=middle;resizable=0;points=[];" parent="B1hULCG9IB6x-jt5RpFV-99" connectable="0" vertex="1">
          <mxGeometry x="0.9441" y="-1" relative="1" as="geometry">
            <mxPoint as="offset" />
          </mxGeometry>
        </mxCell>
        <mxCell id="B1hULCG9IB6x-jt5RpFV-109" value="&lt;font style=&quot;font-size: 15px;&quot;&gt;1&lt;/font&gt;" style="edgeLabel;html=1;align=center;verticalAlign=middle;resizable=0;points=[];" parent="B1hULCG9IB6x-jt5RpFV-99" connectable="0" vertex="1">
          <mxGeometry x="-0.86" relative="1" as="geometry">
            <mxPoint x="1" as="offset" />
          </mxGeometry>
        </mxCell>
        <mxCell id="ns7HTszegkIX43-I1-Sy-13" value="Laboratory" style="swimlane;fontStyle=0;align=center;verticalAlign=top;childLayout=stackLayout;horizontal=1;startSize=26;horizontalStack=0;resizeParent=1;resizeLast=0;collapsible=1;marginBottom=0;rounded=0;shadow=0;strokeWidth=1;" parent="WIyWlLk6GJQsqaUBKTNV-1" vertex="1">
          <mxGeometry x="820" y="1045" width="280" height="570" as="geometry">
            <mxRectangle x="340" y="380" width="170" height="26" as="alternateBounds" />
          </mxGeometry>
        </mxCell>
        <mxCell id="B1hULCG9IB6x-jt5RpFV-76" value="- name" style="text;align=left;verticalAlign=top;spacingLeft=4;spacingRight=4;overflow=hidden;rotatable=0;points=[[0,0.5],[1,0.5]];portConstraint=eastwest;" parent="ns7HTszegkIX43-I1-Sy-13" vertex="1">
          <mxGeometry y="26" width="280" height="26" as="geometry" />
        </mxCell>
        <mxCell id="ns7HTszegkIX43-I1-Sy-14" value="- labManager" style="text;align=left;verticalAlign=top;spacingLeft=4;spacingRight=4;overflow=hidden;rotatable=0;points=[[0,0.5],[1,0.5]];portConstraint=eastwest;" parent="ns7HTszegkIX43-I1-Sy-13" vertex="1">
          <mxGeometry y="52" width="280" height="26" as="geometry" />
        </mxCell>
        <mxCell id="ns7HTszegkIX43-I1-Sy-21" value="- foundationYear" style="text;align=left;verticalAlign=top;spacingLeft=4;spacingRight=4;overflow=hidden;rotatable=0;points=[[0,0.5],[1,0.5]];portConstraint=eastwest;" parent="ns7HTszegkIX43-I1-Sy-13" vertex="1">
          <mxGeometry y="78" width="280" height="26" as="geometry" />
        </mxCell>
        <mxCell id="B1hULCG9IB6x-jt5RpFV-98" value="- address" style="text;align=left;verticalAlign=top;spacingLeft=4;spacingRight=4;overflow=hidden;rotatable=0;points=[[0,0.5],[1,0.5]];portConstraint=eastwest;" parent="ns7HTszegkIX43-I1-Sy-13" vertex="1">
          <mxGeometry y="104" width="280" height="26" as="geometry" />
        </mxCell>
        <mxCell id="ns7HTszegkIX43-I1-Sy-15" value="" style="line;html=1;strokeWidth=1;align=left;verticalAlign=middle;spacingTop=-1;spacingLeft=3;spacingRight=3;rotatable=0;labelPosition=right;points=[];portConstraint=eastwest;" parent="ns7HTszegkIX43-I1-Sy-13" vertex="1">
          <mxGeometry y="130" width="280" height="8" as="geometry" />
        </mxCell>
        <mxCell id="B1hULCG9IB6x-jt5RpFV-131" value="+ register(name, labManager, foundationYear, address)" style="text;align=left;verticalAlign=top;spacingLeft=4;spacingRight=4;overflow=hidden;rotatable=0;points=[[0,0.5],[1,0.5]];portConstraint=eastwest;fontStyle=4;whiteSpace=wrap;" parent="ns7HTszegkIX43-I1-Sy-13" vertex="1">
          <mxGeometry y="138" width="280" height="42" as="geometry" />
        </mxCell>
        <mxCell id="O-cdflODLPfTDC6Lm_YC-0" value="+ getAllLabs()" style="text;align=left;verticalAlign=top;spacingLeft=4;spacingRight=4;overflow=hidden;rotatable=0;points=[[0,0.5],[1,0.5]];portConstraint=eastwest;fontStyle=4;strokeColor=none;" parent="ns7HTszegkIX43-I1-Sy-13" vertex="1">
          <mxGeometry y="180" width="280" height="26" as="geometry" />
        </mxCell>
        <mxCell id="B1hULCG9IB6x-jt5RpFV-133" value="+ edit(name, labManager, foundationYear, address)" style="text;align=left;verticalAlign=top;spacingLeft=4;spacingRight=4;overflow=hidden;rotatable=0;points=[[0,0.5],[1,0.5]];portConstraint=eastwest;whiteSpace=wrap;" parent="ns7HTszegkIX43-I1-Sy-13" vertex="1">
          <mxGeometry y="206" width="280" height="39" as="geometry" />
        </mxCell>
        <mxCell id="B1hULCG9IB6x-jt5RpFV-151" value="+ addAppointmentInterval(dayOfWeek, startTime, duration, count)" style="text;align=left;verticalAlign=top;spacingLeft=4;spacingRight=4;overflow=hidden;rotatable=0;points=[[0,0.5],[1,0.5]];portConstraint=eastwest;whiteSpace=wrap;" parent="ns7HTszegkIX43-I1-Sy-13" vertex="1">
          <mxGeometry y="245" width="280" height="39" as="geometry" />
        </mxCell>
        <mxCell id="B1hULCG9IB6x-jt5RpFV-152" value="+ deleteAppointmentInterval(appointmentInterval)" style="text;align=left;verticalAlign=top;spacingLeft=4;spacingRight=4;overflow=hidden;rotatable=0;points=[[0,0.5],[1,0.5]];portConstraint=eastwest;" parent="ns7HTszegkIX43-I1-Sy-13" vertex="1">
          <mxGeometry y="284" width="280" height="26" as="geometry" />
        </mxCell>
        <mxCell id="B1hULCG9IB6x-jt5RpFV-89" value="+ addPathologist(username, password)" style="text;align=left;verticalAlign=top;spacingLeft=4;spacingRight=4;overflow=hidden;rotatable=0;points=[[0,0.5],[1,0.5]];portConstraint=eastwest;fontStyle=0" parent="ns7HTszegkIX43-I1-Sy-13" vertex="1">
          <mxGeometry y="310" width="280" height="26" as="geometry" />
        </mxCell>
        <mxCell id="B1hULCG9IB6x-jt5RpFV-88" value="+ addTechnician(username, password)" style="text;align=left;verticalAlign=top;spacingLeft=4;spacingRight=4;overflow=hidden;rotatable=0;points=[[0,0.5],[1,0.5]];portConstraint=eastwest;fontStyle=0" parent="ns7HTszegkIX43-I1-Sy-13" vertex="1">
          <mxGeometry y="336" width="280" height="26" as="geometry" />
        </mxCell>
        <mxCell id="B1hULCG9IB6x-jt5RpFV-120" value="+ deleteLabMember(labMember)" style="text;align=left;verticalAlign=top;spacingLeft=4;spacingRight=4;overflow=hidden;rotatable=0;points=[[0,0.5],[1,0.5]];portConstraint=eastwest;fontStyle=0" parent="ns7HTszegkIX43-I1-Sy-13" vertex="1">
          <mxGeometry y="362" width="280" height="26" as="geometry" />
        </mxCell>
        <mxCell id="B1hULCG9IB6x-jt5RpFV-166" value="+ getAllAppointments()" style="text;align=left;verticalAlign=top;spacingLeft=4;spacingRight=4;overflow=hidden;rotatable=0;points=[[0,0.5],[1,0.5]];portConstraint=eastwest;fontStyle=0" parent="ns7HTszegkIX43-I1-Sy-13" vertex="1">
          <mxGeometry y="388" width="280" height="26" as="geometry" />
        </mxCell>
        <mxCell id="B1hULCG9IB6x-jt5RpFV-170" value="+ getAppointmentsByDate(date)" style="text;align=left;verticalAlign=top;spacingLeft=4;spacingRight=4;overflow=hidden;rotatable=0;points=[[0,0.5],[1,0.5]];portConstraint=eastwest;fontStyle=0" parent="ns7HTszegkIX43-I1-Sy-13" vertex="1">
          <mxGeometry y="414" width="280" height="26" as="geometry" />
        </mxCell>
        <mxCell id="B1hULCG9IB6x-jt5RpFV-187" value="+ getAllTestTypes()" style="text;align=left;verticalAlign=top;spacingLeft=4;spacingRight=4;overflow=hidden;rotatable=0;points=[[0,0.5],[1,0.5]];portConstraint=eastwest;fontStyle=0" parent="ns7HTszegkIX43-I1-Sy-13" vertex="1">
          <mxGeometry y="440" width="280" height="26" as="geometry" />
        </mxCell>
        <mxCell id="B1hULCG9IB6x-jt5RpFV-198" value="+ getAllTests()" style="text;align=left;verticalAlign=top;spacingLeft=4;spacingRight=4;overflow=hidden;rotatable=0;points=[[0,0.5],[1,0.5]];portConstraint=eastwest;fontStyle=0" parent="ns7HTszegkIX43-I1-Sy-13" vertex="1">
          <mxGeometry y="466" width="280" height="26" as="geometry" />
        </mxCell>
        <mxCell id="tkdqBaB6u73wmL8V0kCm-0" value="+ getAllAppointmentIntervals()" style="text;align=left;verticalAlign=top;spacingLeft=4;spacingRight=4;overflow=hidden;rotatable=0;points=[[0,0.5],[1,0.5]];portConstraint=eastwest;fontStyle=0" parent="ns7HTszegkIX43-I1-Sy-13" vertex="1">
          <mxGeometry y="492" width="280" height="26" as="geometry" />
        </mxCell>
        <mxCell id="xIZF9LZx-T_ojvfy10qX-2" value="+ getActiveAppointmentIntervals()" style="text;align=left;verticalAlign=top;spacingLeft=4;spacingRight=4;overflow=hidden;rotatable=0;points=[[0,0.5],[1,0.5]];portConstraint=eastwest;fontStyle=0" parent="ns7HTszegkIX43-I1-Sy-13" vertex="1">
          <mxGeometry y="518" width="280" height="26" as="geometry" />
        </mxCell>
        <mxCell id="xIZF9LZx-T_ojvfy10qX-3" value="+ getAllLabMembers()" style="text;align=left;verticalAlign=top;spacingLeft=4;spacingRight=4;overflow=hidden;rotatable=0;points=[[0,0.5],[1,0.5]];portConstraint=eastwest;fontStyle=0" parent="ns7HTszegkIX43-I1-Sy-13" vertex="1">
          <mxGeometry y="544" width="280" height="26" as="geometry" />
        </mxCell>
        <mxCell id="ns7HTszegkIX43-I1-Sy-16" value="Appointment" style="swimlane;fontStyle=0;align=center;verticalAlign=top;childLayout=stackLayout;horizontal=1;startSize=26;horizontalStack=0;resizeParent=1;resizeLast=0;collapsible=1;marginBottom=0;rounded=0;shadow=0;strokeWidth=1;" parent="WIyWlLk6GJQsqaUBKTNV-1" vertex="1">
          <mxGeometry x="201" y="746" width="160" height="293" as="geometry">
            <mxRectangle x="340" y="380" width="170" height="26" as="alternateBounds" />
          </mxGeometry>
        </mxCell>
        <mxCell id="ns7HTszegkIX43-I1-Sy-17" value="- appointmentInterval" style="text;align=left;verticalAlign=top;spacingLeft=4;spacingRight=4;overflow=hidden;rotatable=0;points=[[0,0.5],[1,0.5]];portConstraint=eastwest;" parent="ns7HTszegkIX43-I1-Sy-16" vertex="1">
          <mxGeometry y="26" width="160" height="26" as="geometry" />
        </mxCell>
        <mxCell id="B1hULCG9IB6x-jt5RpFV-157" value="- date" style="text;align=left;verticalAlign=top;spacingLeft=4;spacingRight=4;overflow=hidden;rotatable=0;points=[[0,0.5],[1,0.5]];portConstraint=eastwest;" parent="ns7HTszegkIX43-I1-Sy-16" vertex="1">
          <mxGeometry y="52" width="160" height="26" as="geometry" />
        </mxCell>
        <mxCell id="ns7HTszegkIX43-I1-Sy-23" value="- patient" style="text;align=left;verticalAlign=top;spacingLeft=4;spacingRight=4;overflow=hidden;rotatable=0;points=[[0,0.5],[1,0.5]];portConstraint=eastwest;" parent="ns7HTszegkIX43-I1-Sy-16" vertex="1">
          <mxGeometry y="78" width="160" height="26" as="geometry" />
        </mxCell>
        <mxCell id="B1hULCG9IB6x-jt5RpFV-148" value="- reservationTime" style="text;align=left;verticalAlign=top;spacingLeft=4;spacingRight=4;overflow=hidden;rotatable=0;points=[[0,0.5],[1,0.5]];portConstraint=eastwest;" parent="ns7HTszegkIX43-I1-Sy-16" vertex="1">
          <mxGeometry y="104" width="160" height="26" as="geometry" />
        </mxCell>
        <mxCell id="B1hULCG9IB6x-jt5RpFV-158" value="- isPaid" style="text;align=left;verticalAlign=top;spacingLeft=4;spacingRight=4;overflow=hidden;rotatable=0;points=[[0,0.5],[1,0.5]];portConstraint=eastwest;" parent="ns7HTszegkIX43-I1-Sy-16" vertex="1">
          <mxGeometry y="130" width="160" height="26" as="geometry" />
        </mxCell>
        <mxCell id="B1hULCG9IB6x-jt5RpFV-150" value="- isActive" style="text;align=left;verticalAlign=top;spacingLeft=4;spacingRight=4;overflow=hidden;rotatable=0;points=[[0,0.5],[1,0.5]];portConstraint=eastwest;" parent="ns7HTszegkIX43-I1-Sy-16" vertex="1">
          <mxGeometry y="156" width="160" height="26" as="geometry" />
        </mxCell>
        <mxCell id="ns7HTszegkIX43-I1-Sy-18" value="" style="line;html=1;strokeWidth=1;align=left;verticalAlign=middle;spacingTop=-1;spacingLeft=3;spacingRight=3;rotatable=0;labelPosition=right;points=[];portConstraint=eastwest;" parent="ns7HTszegkIX43-I1-Sy-16" vertex="1">
          <mxGeometry y="182" width="160" height="9" as="geometry" />
        </mxCell>
        <mxCell id="B1hULCG9IB6x-jt5RpFV-159" value="+ pay()" style="text;align=left;verticalAlign=top;spacingLeft=4;spacingRight=4;overflow=hidden;rotatable=0;points=[[0,0.5],[1,0.5]];portConstraint=eastwest;" parent="ns7HTszegkIX43-I1-Sy-16" vertex="1">
          <mxGeometry y="191" width="160" height="26" as="geometry" />
        </mxCell>
        <mxCell id="B1hULCG9IB6x-jt5RpFV-163" value="+ activate()" style="text;align=left;verticalAlign=top;spacingLeft=4;spacingRight=4;overflow=hidden;rotatable=0;points=[[0,0.5],[1,0.5]];portConstraint=eastwest;" parent="ns7HTszegkIX43-I1-Sy-16" vertex="1">
          <mxGeometry y="217" width="160" height="26" as="geometry" />
        </mxCell>
        <mxCell id="B1hULCG9IB6x-jt5RpFV-162" value="+ deActivate()" style="text;align=left;verticalAlign=top;spacingLeft=4;spacingRight=4;overflow=hidden;rotatable=0;points=[[0,0.5],[1,0.5]];portConstraint=eastwest;" parent="ns7HTszegkIX43-I1-Sy-16" vertex="1">
          <mxGeometry y="243" width="160" height="26" as="geometry" />
        </mxCell>
        <mxCell id="B1hULCG9IB6x-jt5RpFV-35" value="" style="endArrow=block;endSize=10;endFill=0;shadow=0;strokeWidth=1;rounded=0;edgeStyle=elbowEdgeStyle;elbow=vertical;exitX=0.5;exitY=0;exitDx=0;exitDy=0;entryX=0.5;entryY=1;entryDx=0;entryDy=0;" parent="WIyWlLk6GJQsqaUBKTNV-1" source="B1hULCG9IB6x-jt5RpFV-31" target="B1hULCG9IB6x-jt5RpFV-0" edge="1">
          <mxGeometry width="160" relative="1" as="geometry">
            <mxPoint x="900" y="521" as="sourcePoint" />
            <mxPoint x="1039" y="202" as="targetPoint" />
          </mxGeometry>
        </mxCell>
        <mxCell id="B1hULCG9IB6x-jt5RpFV-38" value="" style="endArrow=block;endSize=10;endFill=0;shadow=0;strokeWidth=1;rounded=0;edgeStyle=elbowEdgeStyle;elbow=vertical;exitX=0.5;exitY=0;exitDx=0;exitDy=0;entryX=0.5;entryY=1;entryDx=0;entryDy=0;" parent="WIyWlLk6GJQsqaUBKTNV-1" source="B1hULCG9IB6x-jt5RpFV-13" target="B1hULCG9IB6x-jt5RpFV-31" edge="1">
          <mxGeometry width="160" relative="1" as="geometry">
            <mxPoint x="1225" y="323" as="sourcePoint" />
            <mxPoint x="1212" y="466" as="targetPoint" />
          </mxGeometry>
        </mxCell>
        <mxCell id="B1hULCG9IB6x-jt5RpFV-39" value="" style="endArrow=block;endSize=10;endFill=0;shadow=0;strokeWidth=1;rounded=0;edgeStyle=elbowEdgeStyle;elbow=vertical;exitX=0.5;exitY=0;exitDx=0;exitDy=0;entryX=0.5;entryY=1;entryDx=0;entryDy=0;" parent="WIyWlLk6GJQsqaUBKTNV-1" source="B1hULCG9IB6x-jt5RpFV-17" target="B1hULCG9IB6x-jt5RpFV-64" edge="1">
          <mxGeometry width="160" relative="1" as="geometry">
            <mxPoint x="1297" y="411" as="sourcePoint" />
            <mxPoint x="1235" y="518" as="targetPoint" />
          </mxGeometry>
        </mxCell>
        <mxCell id="B1hULCG9IB6x-jt5RpFV-40" value="" style="endArrow=block;endSize=10;endFill=0;shadow=0;strokeWidth=1;rounded=0;edgeStyle=elbowEdgeStyle;elbow=vertical;exitX=0.5;exitY=0;exitDx=0;exitDy=0;entryX=0.5;entryY=1;entryDx=0;entryDy=0;" parent="WIyWlLk6GJQsqaUBKTNV-1" source="ns7HTszegkIX43-I1-Sy-0" target="B1hULCG9IB6x-jt5RpFV-64" edge="1">
          <mxGeometry width="160" relative="1" as="geometry">
            <mxPoint x="1307" y="421" as="sourcePoint" />
            <mxPoint x="1135" y="317" as="targetPoint" />
          </mxGeometry>
        </mxCell>
        <mxCell id="B1hULCG9IB6x-jt5RpFV-64" value="LabMember" style="swimlane;fontStyle=0;align=center;verticalAlign=top;childLayout=stackLayout;horizontal=1;startSize=26;horizontalStack=0;resizeParent=1;resizeLast=0;collapsible=1;marginBottom=0;rounded=0;shadow=0;strokeWidth=1;" parent="WIyWlLk6GJQsqaUBKTNV-1" vertex="1">
          <mxGeometry x="1367" y="522" width="251" height="134" as="geometry">
            <mxRectangle x="340" y="380" width="170" height="26" as="alternateBounds" />
          </mxGeometry>
        </mxCell>
        <mxCell id="XG-66urUs-drCNg23yl3-1" value="- laboratory" style="text;align=left;verticalAlign=top;spacingLeft=4;spacingRight=4;overflow=hidden;rotatable=0;points=[[0,0.5],[1,0.5]];portConstraint=eastwest;" parent="B1hULCG9IB6x-jt5RpFV-64" vertex="1">
          <mxGeometry y="26" width="251" height="26" as="geometry" />
        </mxCell>
        <mxCell id="ns7HTszegkIX43-I1-Sy-32" value="- personnelCode" style="text;align=left;verticalAlign=top;spacingLeft=4;spacingRight=4;overflow=hidden;rotatable=0;points=[[0,0.5],[1,0.5]];portConstraint=eastwest;" parent="B1hULCG9IB6x-jt5RpFV-64" vertex="1">
          <mxGeometry y="52" width="251" height="26" as="geometry" />
        </mxCell>
        <mxCell id="B1hULCG9IB6x-jt5RpFV-67" value="" style="line;html=1;strokeWidth=1;align=left;verticalAlign=middle;spacingTop=-1;spacingLeft=3;spacingRight=3;rotatable=0;labelPosition=right;points=[];portConstraint=eastwest;" parent="B1hULCG9IB6x-jt5RpFV-64" vertex="1">
          <mxGeometry y="78" width="251" height="8" as="geometry" />
        </mxCell>
        <mxCell id="ns7HTszegkIX43-I1-Sy-39" value="+ editProfile(firstName, lastName, personnelCode)" style="text;align=left;verticalAlign=top;spacingLeft=4;spacingRight=4;overflow=hidden;rotatable=0;points=[[0,0.5],[1,0.5]];portConstraint=eastwest;whiteSpace=wrap;" parent="B1hULCG9IB6x-jt5RpFV-64" vertex="1">
          <mxGeometry y="86" width="251" height="41" as="geometry" />
        </mxCell>
        <mxCell id="B1hULCG9IB6x-jt5RpFV-69" value="" style="endArrow=block;endSize=10;endFill=0;shadow=0;strokeWidth=1;rounded=0;edgeStyle=elbowEdgeStyle;elbow=vertical;exitX=0.5;exitY=0;exitDx=0;exitDy=0;entryX=0.5;entryY=1;entryDx=0;entryDy=0;jumpSize=6;" parent="WIyWlLk6GJQsqaUBKTNV-1" source="B1hULCG9IB6x-jt5RpFV-64" target="B1hULCG9IB6x-jt5RpFV-31" edge="1">
          <mxGeometry width="160" relative="1" as="geometry">
            <mxPoint x="983" y="534" as="sourcePoint" />
            <mxPoint x="1238" y="459" as="targetPoint" />
            <Array as="points">
              <mxPoint x="1380" y="490" />
            </Array>
          </mxGeometry>
        </mxCell>
        <mxCell id="B1hULCG9IB6x-jt5RpFV-79" value="" style="endArrow=none;endSize=10;endFill=0;shadow=0;strokeWidth=1;rounded=0;edgeStyle=elbowEdgeStyle;elbow=vertical;exitX=0.5;exitY=0;exitDx=0;exitDy=0;entryX=0.5;entryY=1;entryDx=0;entryDy=0;" parent="WIyWlLk6GJQsqaUBKTNV-1" source="ns7HTszegkIX43-I1-Sy-13" target="B1hULCG9IB6x-jt5RpFV-13" edge="1">
          <mxGeometry width="160" relative="1" as="geometry">
            <mxPoint x="1503" y="534" as="sourcePoint" />
            <mxPoint x="1226" y="460" as="targetPoint" />
            <Array as="points" />
          </mxGeometry>
        </mxCell>
        <mxCell id="B1hULCG9IB6x-jt5RpFV-80" value="&lt;font style=&quot;font-size: 15px;&quot;&gt;1&lt;/font&gt;" style="edgeLabel;html=1;align=center;verticalAlign=middle;resizable=0;points=[];" parent="B1hULCG9IB6x-jt5RpFV-79" connectable="0" vertex="1">
          <mxGeometry x="0.8906" y="-1" relative="1" as="geometry">
            <mxPoint as="offset" />
          </mxGeometry>
        </mxCell>
        <mxCell id="B1hULCG9IB6x-jt5RpFV-81" value="&lt;font style=&quot;font-size: 15px;&quot;&gt;1&lt;/font&gt;" style="edgeLabel;html=1;align=center;verticalAlign=middle;resizable=0;points=[];" parent="B1hULCG9IB6x-jt5RpFV-79" connectable="0" vertex="1">
          <mxGeometry x="-0.9106" y="-2" relative="1" as="geometry">
            <mxPoint as="offset" />
          </mxGeometry>
        </mxCell>
        <mxCell id="B1hULCG9IB6x-jt5RpFV-90" value="Address" style="swimlane;fontStyle=0;align=center;verticalAlign=top;childLayout=stackLayout;horizontal=1;startSize=26;horizontalStack=0;resizeParent=1;resizeLast=0;collapsible=1;marginBottom=0;rounded=0;shadow=0;strokeWidth=1;" parent="WIyWlLk6GJQsqaUBKTNV-1" vertex="1">
          <mxGeometry x="583" y="743" width="160" height="134" as="geometry">
            <mxRectangle x="340" y="380" width="170" height="26" as="alternateBounds" />
          </mxGeometry>
        </mxCell>
        <mxCell id="B1hULCG9IB6x-jt5RpFV-93" value="+ province" style="text;align=left;verticalAlign=top;spacingLeft=4;spacingRight=4;overflow=hidden;rotatable=0;points=[[0,0.5],[1,0.5]];portConstraint=eastwest;" parent="B1hULCG9IB6x-jt5RpFV-90" vertex="1">
          <mxGeometry y="26" width="160" height="26" as="geometry" />
        </mxCell>
        <mxCell id="B1hULCG9IB6x-jt5RpFV-94" value="+ city" style="text;align=left;verticalAlign=top;spacingLeft=4;spacingRight=4;overflow=hidden;rotatable=0;points=[[0,0.5],[1,0.5]];portConstraint=eastwest;" parent="B1hULCG9IB6x-jt5RpFV-90" vertex="1">
          <mxGeometry y="52" width="160" height="26" as="geometry" />
        </mxCell>
        <mxCell id="B1hULCG9IB6x-jt5RpFV-95" value="+ detail" style="text;align=left;verticalAlign=top;spacingLeft=4;spacingRight=4;overflow=hidden;rotatable=0;points=[[0,0.5],[1,0.5]];portConstraint=eastwest;" parent="B1hULCG9IB6x-jt5RpFV-90" vertex="1">
          <mxGeometry y="78" width="160" height="26" as="geometry" />
        </mxCell>
        <mxCell id="B1hULCG9IB6x-jt5RpFV-96" value="" style="line;html=1;strokeWidth=1;align=left;verticalAlign=middle;spacingTop=-1;spacingLeft=3;spacingRight=3;rotatable=0;labelPosition=right;points=[];portConstraint=eastwest;" parent="B1hULCG9IB6x-jt5RpFV-90" vertex="1">
          <mxGeometry y="104" width="160" height="8" as="geometry" />
        </mxCell>
        <mxCell id="B1hULCG9IB6x-jt5RpFV-110" style="edgeStyle=orthogonalEdgeStyle;rounded=0;orthogonalLoop=1;jettySize=auto;html=1;entryX=0.5;entryY=0;entryDx=0;entryDy=0;endArrow=none;endFill=0;endSize=15;exitX=0.5;exitY=1;exitDx=0;exitDy=0;startSize=15;startArrow=diamondThin;startFill=0;" parent="WIyWlLk6GJQsqaUBKTNV-1" source="B1hULCG9IB6x-jt5RpFV-6" target="B1hULCG9IB6x-jt5RpFV-90" edge="1">
          <mxGeometry relative="1" as="geometry">
            <mxPoint x="658" y="950" as="sourcePoint" />
            <mxPoint x="321" y="794" as="targetPoint" />
          </mxGeometry>
        </mxCell>
        <mxCell id="B1hULCG9IB6x-jt5RpFV-111" value="&lt;font style=&quot;font-size: 15px;&quot;&gt;1&lt;/font&gt;" style="edgeLabel;html=1;align=center;verticalAlign=middle;resizable=0;points=[];" parent="B1hULCG9IB6x-jt5RpFV-110" connectable="0" vertex="1">
          <mxGeometry x="0.9441" y="-1" relative="1" as="geometry">
            <mxPoint y="-4" as="offset" />
          </mxGeometry>
        </mxCell>
        <mxCell id="B1hULCG9IB6x-jt5RpFV-112" value="&lt;font style=&quot;font-size: 15px;&quot;&gt;1&lt;/font&gt;" style="edgeLabel;html=1;align=center;verticalAlign=middle;resizable=0;points=[];" parent="B1hULCG9IB6x-jt5RpFV-110" connectable="0" vertex="1">
          <mxGeometry x="-0.86" relative="1" as="geometry">
            <mxPoint x="-1" y="9" as="offset" />
          </mxGeometry>
        </mxCell>
        <mxCell id="B1hULCG9IB6x-jt5RpFV-121" style="edgeStyle=orthogonalEdgeStyle;rounded=0;orthogonalLoop=1;jettySize=auto;html=1;entryX=1;entryY=0.5;entryDx=0;entryDy=0;endArrow=diamondThin;endFill=1;endSize=15;exitX=0.5;exitY=1;exitDx=0;exitDy=0;startSize=15;startArrow=none;startFill=0;" parent="WIyWlLk6GJQsqaUBKTNV-1" source="B1hULCG9IB6x-jt5RpFV-17" target="B1hULCG9IB6x-jt5RpFV-76" edge="1">
          <mxGeometry relative="1" as="geometry">
            <mxPoint x="658" y="950" as="sourcePoint" />
            <mxPoint x="528" y="759" as="targetPoint" />
          </mxGeometry>
        </mxCell>
        <mxCell id="B1hULCG9IB6x-jt5RpFV-122" value="&lt;font style=&quot;font-size: 15px;&quot;&gt;1&lt;/font&gt;" style="edgeLabel;html=1;align=center;verticalAlign=middle;resizable=0;points=[];" parent="B1hULCG9IB6x-jt5RpFV-121" connectable="0" vertex="1">
          <mxGeometry x="0.9441" y="-1" relative="1" as="geometry">
            <mxPoint x="19" as="offset" />
          </mxGeometry>
        </mxCell>
        <mxCell id="B1hULCG9IB6x-jt5RpFV-123" value="&lt;font style=&quot;font-size: 15px;&quot;&gt;1..*&lt;/font&gt;" style="edgeLabel;html=1;align=center;verticalAlign=middle;resizable=0;points=[];" parent="B1hULCG9IB6x-jt5RpFV-121" connectable="0" vertex="1">
          <mxGeometry x="-0.86" relative="1" as="geometry">
            <mxPoint x="-3" as="offset" />
          </mxGeometry>
        </mxCell>
        <mxCell id="B1hULCG9IB6x-jt5RpFV-127" style="edgeStyle=orthogonalEdgeStyle;rounded=0;orthogonalLoop=1;jettySize=auto;html=1;entryX=1;entryY=0.5;entryDx=0;entryDy=0;endArrow=diamondThin;endFill=1;endSize=15;exitX=0.5;exitY=1;exitDx=0;exitDy=0;startSize=15;startArrow=none;startFill=0;" parent="WIyWlLk6GJQsqaUBKTNV-1" source="ns7HTszegkIX43-I1-Sy-0" target="ns7HTszegkIX43-I1-Sy-21" edge="1">
          <mxGeometry relative="1" as="geometry">
            <mxPoint x="1342" y="993" as="sourcePoint" />
            <mxPoint x="1043" y="1217" as="targetPoint" />
          </mxGeometry>
        </mxCell>
        <mxCell id="B1hULCG9IB6x-jt5RpFV-128" value="&lt;font style=&quot;font-size: 15px;&quot;&gt;1&lt;/font&gt;" style="edgeLabel;html=1;align=center;verticalAlign=middle;resizable=0;points=[];" parent="B1hULCG9IB6x-jt5RpFV-127" connectable="0" vertex="1">
          <mxGeometry x="0.9441" y="-1" relative="1" as="geometry">
            <mxPoint x="11" as="offset" />
          </mxGeometry>
        </mxCell>
        <mxCell id="B1hULCG9IB6x-jt5RpFV-129" value="&lt;font style=&quot;font-size: 15px;&quot;&gt;1..*&lt;/font&gt;" style="edgeLabel;html=1;align=center;verticalAlign=middle;resizable=0;points=[];" parent="B1hULCG9IB6x-jt5RpFV-127" connectable="0" vertex="1">
          <mxGeometry x="-0.86" relative="1" as="geometry">
            <mxPoint x="-3" y="-27" as="offset" />
          </mxGeometry>
        </mxCell>
        <mxCell id="B1hULCG9IB6x-jt5RpFV-135" value="AppointmentInterval" style="swimlane;fontStyle=0;align=center;verticalAlign=top;childLayout=stackLayout;horizontal=1;startSize=26;horizontalStack=0;resizeParent=1;resizeLast=0;collapsible=1;marginBottom=0;rounded=0;shadow=0;strokeWidth=1;" parent="WIyWlLk6GJQsqaUBKTNV-1" vertex="1">
          <mxGeometry x="391" y="1112" width="160" height="242" as="geometry">
            <mxRectangle x="340" y="380" width="170" height="26" as="alternateBounds" />
          </mxGeometry>
        </mxCell>
        <mxCell id="B1hULCG9IB6x-jt5RpFV-144" value="- laboratory" style="text;align=left;verticalAlign=top;spacingLeft=4;spacingRight=4;overflow=hidden;rotatable=0;points=[[0,0.5],[1,0.5]];portConstraint=eastwest;" parent="B1hULCG9IB6x-jt5RpFV-135" vertex="1">
          <mxGeometry y="26" width="160" height="26" as="geometry" />
        </mxCell>
        <mxCell id="B1hULCG9IB6x-jt5RpFV-136" value="- dayOfWeek" style="text;align=left;verticalAlign=top;spacingLeft=4;spacingRight=4;overflow=hidden;rotatable=0;points=[[0,0.5],[1,0.5]];portConstraint=eastwest;" parent="B1hULCG9IB6x-jt5RpFV-135" vertex="1">
          <mxGeometry y="52" width="160" height="26" as="geometry" />
        </mxCell>
        <mxCell id="B1hULCG9IB6x-jt5RpFV-137" value="- startTime" style="text;align=left;verticalAlign=top;spacingLeft=4;spacingRight=4;overflow=hidden;rotatable=0;points=[[0,0.5],[1,0.5]];portConstraint=eastwest;" parent="B1hULCG9IB6x-jt5RpFV-135" vertex="1">
          <mxGeometry y="78" width="160" height="26" as="geometry" />
        </mxCell>
        <mxCell id="B1hULCG9IB6x-jt5RpFV-138" value="- duration" style="text;align=left;verticalAlign=top;spacingLeft=4;spacingRight=4;overflow=hidden;rotatable=0;points=[[0,0.5],[1,0.5]];portConstraint=eastwest;" parent="B1hULCG9IB6x-jt5RpFV-135" vertex="1">
          <mxGeometry y="104" width="160" height="26" as="geometry" />
        </mxCell>
        <mxCell id="B1hULCG9IB6x-jt5RpFV-149" value="- count" style="text;align=left;verticalAlign=top;spacingLeft=4;spacingRight=4;overflow=hidden;rotatable=0;points=[[0,0.5],[1,0.5]];portConstraint=eastwest;" parent="B1hULCG9IB6x-jt5RpFV-135" vertex="1">
          <mxGeometry y="130" width="160" height="26" as="geometry" />
        </mxCell>
        <mxCell id="B1hULCG9IB6x-jt5RpFV-161" value="- isActive" style="text;align=left;verticalAlign=top;spacingLeft=4;spacingRight=4;overflow=hidden;rotatable=0;points=[[0,0.5],[1,0.5]];portConstraint=eastwest;" parent="B1hULCG9IB6x-jt5RpFV-135" vertex="1">
          <mxGeometry y="156" width="160" height="26" as="geometry" />
        </mxCell>
        <mxCell id="B1hULCG9IB6x-jt5RpFV-140" value="" style="line;html=1;strokeWidth=1;align=left;verticalAlign=middle;spacingTop=-1;spacingLeft=3;spacingRight=3;rotatable=0;labelPosition=right;points=[];portConstraint=eastwest;" parent="B1hULCG9IB6x-jt5RpFV-135" vertex="1">
          <mxGeometry y="182" width="160" height="8" as="geometry" />
        </mxCell>
        <mxCell id="B1hULCG9IB6x-jt5RpFV-164" value="+ activate()" style="text;align=left;verticalAlign=top;spacingLeft=4;spacingRight=4;overflow=hidden;rotatable=0;points=[[0,0.5],[1,0.5]];portConstraint=eastwest;" parent="B1hULCG9IB6x-jt5RpFV-135" vertex="1">
          <mxGeometry y="190" width="160" height="26" as="geometry" />
        </mxCell>
        <mxCell id="B1hULCG9IB6x-jt5RpFV-165" value="+ deActivate()" style="text;align=left;verticalAlign=top;spacingLeft=4;spacingRight=4;overflow=hidden;rotatable=0;points=[[0,0.5],[1,0.5]];portConstraint=eastwest;" parent="B1hULCG9IB6x-jt5RpFV-135" vertex="1">
          <mxGeometry y="216" width="160" height="26" as="geometry" />
        </mxCell>
        <mxCell id="B1hULCG9IB6x-jt5RpFV-141" style="edgeStyle=orthogonalEdgeStyle;rounded=0;orthogonalLoop=1;jettySize=auto;html=1;entryX=1;entryY=0.5;entryDx=0;entryDy=0;endArrow=none;endFill=0;endSize=15;exitX=0;exitY=0.5;exitDx=0;exitDy=0;startSize=15;startArrow=diamondThin;startFill=1;" parent="WIyWlLk6GJQsqaUBKTNV-1" source="B1hULCG9IB6x-jt5RpFV-98" target="B1hULCG9IB6x-jt5RpFV-137" edge="1">
          <mxGeometry relative="1" as="geometry">
            <mxPoint x="830" y="1187" as="sourcePoint" />
            <mxPoint x="528" y="759" as="targetPoint" />
          </mxGeometry>
        </mxCell>
        <mxCell id="B1hULCG9IB6x-jt5RpFV-142" value="&lt;font style=&quot;font-size: 15px;&quot;&gt;1..*&lt;/font&gt;" style="edgeLabel;html=1;align=center;verticalAlign=middle;resizable=0;points=[];" parent="B1hULCG9IB6x-jt5RpFV-141" connectable="0" vertex="1">
          <mxGeometry x="0.9441" y="-1" relative="1" as="geometry">
            <mxPoint x="9" as="offset" />
          </mxGeometry>
        </mxCell>
        <mxCell id="B1hULCG9IB6x-jt5RpFV-143" value="&lt;font style=&quot;font-size: 15px;&quot;&gt;1&lt;/font&gt;" style="edgeLabel;html=1;align=center;verticalAlign=middle;resizable=0;points=[];" parent="B1hULCG9IB6x-jt5RpFV-141" connectable="0" vertex="1">
          <mxGeometry x="-0.86" relative="1" as="geometry">
            <mxPoint x="-14" as="offset" />
          </mxGeometry>
        </mxCell>
        <mxCell id="B1hULCG9IB6x-jt5RpFV-145" style="edgeStyle=orthogonalEdgeStyle;rounded=0;orthogonalLoop=1;jettySize=auto;html=1;entryX=0.5;entryY=0;entryDx=0;entryDy=0;endArrow=none;endFill=0;endSize=15;startSize=15;startArrow=none;startFill=0;exitX=0.5;exitY=1;exitDx=0;exitDy=0;" parent="WIyWlLk6GJQsqaUBKTNV-1" source="ns7HTszegkIX43-I1-Sy-16" target="B1hULCG9IB6x-jt5RpFV-135" edge="1">
          <mxGeometry relative="1" as="geometry">
            <mxPoint x="419" y="1092" as="sourcePoint" />
            <mxPoint x="588" y="1353" as="targetPoint" />
          </mxGeometry>
        </mxCell>
        <mxCell id="B1hULCG9IB6x-jt5RpFV-146" value="&lt;font style=&quot;font-size: 15px;&quot;&gt;1&lt;/font&gt;" style="edgeLabel;html=1;align=center;verticalAlign=middle;resizable=0;points=[];" parent="B1hULCG9IB6x-jt5RpFV-145" connectable="0" vertex="1">
          <mxGeometry x="0.9441" y="-1" relative="1" as="geometry">
            <mxPoint x="2" y="-10" as="offset" />
          </mxGeometry>
        </mxCell>
        <mxCell id="B1hULCG9IB6x-jt5RpFV-147" value="&lt;font style=&quot;font-size: 15px;&quot;&gt;0..*&lt;/font&gt;" style="edgeLabel;html=1;align=center;verticalAlign=middle;resizable=0;points=[];" parent="B1hULCG9IB6x-jt5RpFV-145" connectable="0" vertex="1">
          <mxGeometry x="-0.86" relative="1" as="geometry">
            <mxPoint y="3" as="offset" />
          </mxGeometry>
        </mxCell>
        <mxCell id="B1hULCG9IB6x-jt5RpFV-153" style="edgeStyle=orthogonalEdgeStyle;rounded=0;orthogonalLoop=1;jettySize=auto;html=1;entryX=0.5;entryY=0;entryDx=0;entryDy=0;endArrow=none;endFill=0;endSize=15;exitX=0.25;exitY=1;exitDx=0;exitDy=0;startSize=15;startArrow=diamondThin;startFill=1;" parent="WIyWlLk6GJQsqaUBKTNV-1" source="B1hULCG9IB6x-jt5RpFV-6" target="ns7HTszegkIX43-I1-Sy-16" edge="1">
          <mxGeometry relative="1" as="geometry">
            <mxPoint x="568" y="498" as="sourcePoint" />
            <mxPoint x="673" y="753" as="targetPoint" />
          </mxGeometry>
        </mxCell>
        <mxCell id="B1hULCG9IB6x-jt5RpFV-154" value="&lt;font style=&quot;font-size: 15px;&quot;&gt;0..*&lt;/font&gt;" style="edgeLabel;html=1;align=center;verticalAlign=middle;resizable=0;points=[];" parent="B1hULCG9IB6x-jt5RpFV-153" connectable="0" vertex="1">
          <mxGeometry x="0.9441" y="-1" relative="1" as="geometry">
            <mxPoint y="-4" as="offset" />
          </mxGeometry>
        </mxCell>
        <mxCell id="B1hULCG9IB6x-jt5RpFV-155" value="&lt;font style=&quot;font-size: 15px;&quot;&gt;1&lt;/font&gt;" style="edgeLabel;html=1;align=center;verticalAlign=middle;resizable=0;points=[];" parent="B1hULCG9IB6x-jt5RpFV-153" connectable="0" vertex="1">
          <mxGeometry x="-0.86" relative="1" as="geometry">
            <mxPoint x="-1" y="4" as="offset" />
          </mxGeometry>
        </mxCell>
        <mxCell id="B1hULCG9IB6x-jt5RpFV-171" value="TestType" style="swimlane;fontStyle=0;align=center;verticalAlign=top;childLayout=stackLayout;horizontal=1;startSize=26;horizontalStack=0;resizeParent=1;resizeLast=0;collapsible=1;marginBottom=0;rounded=0;shadow=0;strokeWidth=1;" parent="WIyWlLk6GJQsqaUBKTNV-1" vertex="1">
          <mxGeometry x="391" y="1434" width="160" height="190" as="geometry">
            <mxRectangle x="340" y="380" width="170" height="26" as="alternateBounds" />
          </mxGeometry>
        </mxCell>
        <mxCell id="B1hULCG9IB6x-jt5RpFV-172" value="- title" style="text;align=left;verticalAlign=top;spacingLeft=4;spacingRight=4;overflow=hidden;rotatable=0;points=[[0,0.5],[1,0.5]];portConstraint=eastwest;" parent="B1hULCG9IB6x-jt5RpFV-171" vertex="1">
          <mxGeometry y="26" width="160" height="26" as="geometry" />
        </mxCell>
        <mxCell id="ol7tyLdlxts_tU-q-wyN-1" value="- laboratory" style="text;align=left;verticalAlign=top;spacingLeft=4;spacingRight=4;overflow=hidden;rotatable=0;points=[[0,0.5],[1,0.5]];portConstraint=eastwest;" parent="B1hULCG9IB6x-jt5RpFV-171" vertex="1">
          <mxGeometry y="52" width="160" height="26" as="geometry" />
        </mxCell>
        <mxCell id="B1hULCG9IB6x-jt5RpFV-173" value="- price" style="text;align=left;verticalAlign=top;spacingLeft=4;spacingRight=4;overflow=hidden;rotatable=0;points=[[0,0.5],[1,0.5]];portConstraint=eastwest;" parent="B1hULCG9IB6x-jt5RpFV-171" vertex="1">
          <mxGeometry y="78" width="160" height="26" as="geometry" />
        </mxCell>
        <mxCell id="B1hULCG9IB6x-jt5RpFV-177" value="- isActive" style="text;align=left;verticalAlign=top;spacingLeft=4;spacingRight=4;overflow=hidden;rotatable=0;points=[[0,0.5],[1,0.5]];portConstraint=eastwest;" parent="B1hULCG9IB6x-jt5RpFV-171" vertex="1">
          <mxGeometry y="104" width="160" height="26" as="geometry" />
        </mxCell>
        <mxCell id="B1hULCG9IB6x-jt5RpFV-178" value="" style="line;html=1;strokeWidth=1;align=left;verticalAlign=middle;spacingTop=-1;spacingLeft=3;spacingRight=3;rotatable=0;labelPosition=right;points=[];portConstraint=eastwest;" parent="B1hULCG9IB6x-jt5RpFV-171" vertex="1">
          <mxGeometry y="130" width="160" height="8" as="geometry" />
        </mxCell>
        <mxCell id="B1hULCG9IB6x-jt5RpFV-179" value="+ activate()" style="text;align=left;verticalAlign=top;spacingLeft=4;spacingRight=4;overflow=hidden;rotatable=0;points=[[0,0.5],[1,0.5]];portConstraint=eastwest;" parent="B1hULCG9IB6x-jt5RpFV-171" vertex="1">
          <mxGeometry y="138" width="160" height="26" as="geometry" />
        </mxCell>
        <mxCell id="B1hULCG9IB6x-jt5RpFV-180" value="+ deActivate()" style="text;align=left;verticalAlign=top;spacingLeft=4;spacingRight=4;overflow=hidden;rotatable=0;points=[[0,0.5],[1,0.5]];portConstraint=eastwest;" parent="B1hULCG9IB6x-jt5RpFV-171" vertex="1">
          <mxGeometry y="164" width="160" height="26" as="geometry" />
        </mxCell>
        <mxCell id="B1hULCG9IB6x-jt5RpFV-184" style="edgeStyle=orthogonalEdgeStyle;rounded=0;orthogonalLoop=1;jettySize=auto;html=1;entryX=1;entryY=0.5;entryDx=0;entryDy=0;endArrow=none;endFill=0;endSize=15;exitX=0;exitY=0.5;exitDx=0;exitDy=0;startSize=15;startArrow=diamondThin;startFill=1;" parent="WIyWlLk6GJQsqaUBKTNV-1" source="B1hULCG9IB6x-jt5RpFV-89" target="B1hULCG9IB6x-jt5RpFV-177" edge="1">
          <mxGeometry relative="1" as="geometry">
            <mxPoint x="830" y="1172" as="sourcePoint" />
            <mxPoint x="561" y="1213" as="targetPoint" />
            <Array as="points">
              <mxPoint x="696" y="1368" />
              <mxPoint x="696" y="1525" />
              <mxPoint x="551" y="1525" />
            </Array>
          </mxGeometry>
        </mxCell>
        <mxCell id="B1hULCG9IB6x-jt5RpFV-185" value="&lt;font style=&quot;font-size: 15px;&quot;&gt;1..*&lt;/font&gt;" style="edgeLabel;html=1;align=center;verticalAlign=middle;resizable=0;points=[];" parent="B1hULCG9IB6x-jt5RpFV-184" connectable="0" vertex="1">
          <mxGeometry x="0.9441" y="-1" relative="1" as="geometry">
            <mxPoint x="7" y="-1" as="offset" />
          </mxGeometry>
        </mxCell>
        <mxCell id="B1hULCG9IB6x-jt5RpFV-186" value="&lt;font style=&quot;font-size: 15px;&quot;&gt;1&lt;/font&gt;" style="edgeLabel;html=1;align=center;verticalAlign=middle;resizable=0;points=[];" parent="B1hULCG9IB6x-jt5RpFV-184" connectable="0" vertex="1">
          <mxGeometry x="-0.86" relative="1" as="geometry">
            <mxPoint x="6" as="offset" />
          </mxGeometry>
        </mxCell>
        <mxCell id="B1hULCG9IB6x-jt5RpFV-188" value="Test" style="swimlane;fontStyle=0;align=center;verticalAlign=top;childLayout=stackLayout;horizontal=1;startSize=26;horizontalStack=0;resizeParent=1;resizeLast=0;collapsible=1;marginBottom=0;rounded=0;shadow=0;strokeWidth=1;" parent="WIyWlLk6GJQsqaUBKTNV-1" vertex="1">
          <mxGeometry x="105" y="1220" width="160" height="268" as="geometry">
            <mxRectangle x="340" y="380" width="170" height="26" as="alternateBounds" />
          </mxGeometry>
        </mxCell>
        <mxCell id="B1hULCG9IB6x-jt5RpFV-191" value="- appointment" style="text;align=left;verticalAlign=top;spacingLeft=4;spacingRight=4;overflow=hidden;rotatable=0;points=[[0,0.5],[1,0.5]];portConstraint=eastwest;" parent="B1hULCG9IB6x-jt5RpFV-188" vertex="1">
          <mxGeometry y="26" width="160" height="26" as="geometry" />
        </mxCell>
        <mxCell id="B1hULCG9IB6x-jt5RpFV-190" value="- testType" style="text;align=left;verticalAlign=top;spacingLeft=4;spacingRight=4;overflow=hidden;rotatable=0;points=[[0,0.5],[1,0.5]];portConstraint=eastwest;" parent="B1hULCG9IB6x-jt5RpFV-188" vertex="1">
          <mxGeometry y="52" width="160" height="26" as="geometry" />
        </mxCell>
        <mxCell id="B1hULCG9IB6x-jt5RpFV-193" value="- status" style="text;align=left;verticalAlign=top;spacingLeft=4;spacingRight=4;overflow=hidden;rotatable=0;points=[[0,0.5],[1,0.5]];portConstraint=eastwest;" parent="B1hULCG9IB6x-jt5RpFV-188" vertex="1">
          <mxGeometry y="78" width="160" height="26" as="geometry" />
        </mxCell>
        <mxCell id="xIZF9LZx-T_ojvfy10qX-0" value="- result" style="text;align=left;verticalAlign=top;spacingLeft=4;spacingRight=4;overflow=hidden;rotatable=0;points=[[0,0.5],[1,0.5]];portConstraint=eastwest;" parent="B1hULCG9IB6x-jt5RpFV-188" vertex="1">
          <mxGeometry y="104" width="160" height="26" as="geometry" />
        </mxCell>
        <mxCell id="XG-66urUs-drCNg23yl3-14" value="- diagnosis" style="text;align=left;verticalAlign=top;spacingLeft=4;spacingRight=4;overflow=hidden;rotatable=0;points=[[0,0.5],[1,0.5]];portConstraint=eastwest;" parent="B1hULCG9IB6x-jt5RpFV-188" vertex="1">
          <mxGeometry y="130" width="160" height="26" as="geometry" />
        </mxCell>
        <mxCell id="B1hULCG9IB6x-jt5RpFV-192" value="" style="line;html=1;strokeWidth=1;align=left;verticalAlign=middle;spacingTop=-1;spacingLeft=3;spacingRight=3;rotatable=0;labelPosition=right;points=[];portConstraint=eastwest;" parent="B1hULCG9IB6x-jt5RpFV-188" vertex="1">
          <mxGeometry y="156" width="160" height="8" as="geometry" />
        </mxCell>
        <mxCell id="XG-66urUs-drCNg23yl3-4" value="+ setStatus(status)" style="text;align=left;verticalAlign=top;spacingLeft=4;spacingRight=4;overflow=hidden;rotatable=0;points=[[0,0.5],[1,0.5]];portConstraint=eastwest;" parent="B1hULCG9IB6x-jt5RpFV-188" vertex="1">
          <mxGeometry y="164" width="160" height="26" as="geometry" />
        </mxCell>
        <mxCell id="XG-66urUs-drCNg23yl3-6" value="+ setTestType(testType)" style="text;align=left;verticalAlign=top;spacingLeft=4;spacingRight=4;overflow=hidden;rotatable=0;points=[[0,0.5],[1,0.5]];portConstraint=eastwest;" parent="B1hULCG9IB6x-jt5RpFV-188" vertex="1">
          <mxGeometry y="190" width="160" height="26" as="geometry" />
        </mxCell>
        <mxCell id="XG-66urUs-drCNg23yl3-15" value="+ setDiagnosis(diagnosis)" style="text;align=left;verticalAlign=top;spacingLeft=4;spacingRight=4;overflow=hidden;rotatable=0;points=[[0,0.5],[1,0.5]];portConstraint=eastwest;" parent="B1hULCG9IB6x-jt5RpFV-188" vertex="1">
          <mxGeometry y="216" width="160" height="26" as="geometry" />
        </mxCell>
        <mxCell id="ol7tyLdlxts_tU-q-wyN-0" value="+ getDetails()" style="text;align=left;verticalAlign=top;spacingLeft=4;spacingRight=4;overflow=hidden;rotatable=0;points=[[0,0.5],[1,0.5]];portConstraint=eastwest;" parent="B1hULCG9IB6x-jt5RpFV-188" vertex="1">
          <mxGeometry y="242" width="160" height="26" as="geometry" />
        </mxCell>
        <mxCell id="B1hULCG9IB6x-jt5RpFV-199" style="edgeStyle=orthogonalEdgeStyle;rounded=0;orthogonalLoop=1;jettySize=auto;html=1;entryX=0.5;entryY=0;entryDx=0;entryDy=0;endArrow=none;endFill=0;endSize=15;startSize=15;startArrow=diamondThin;startFill=1;exitX=0.25;exitY=1;exitDx=0;exitDy=0;" parent="WIyWlLk6GJQsqaUBKTNV-1" source="ns7HTszegkIX43-I1-Sy-16" target="B1hULCG9IB6x-jt5RpFV-188" edge="1">
          <mxGeometry relative="1" as="geometry">
            <mxPoint x="291" y="1049" as="sourcePoint" />
            <mxPoint x="481" y="1122" as="targetPoint" />
          </mxGeometry>
        </mxCell>
        <mxCell id="B1hULCG9IB6x-jt5RpFV-200" value="&lt;font style=&quot;font-size: 15px;&quot;&gt;0..1&lt;/font&gt;" style="edgeLabel;html=1;align=center;verticalAlign=middle;resizable=0;points=[];" parent="B1hULCG9IB6x-jt5RpFV-199" connectable="0" vertex="1">
          <mxGeometry x="0.9441" y="-1" relative="1" as="geometry">
            <mxPoint y="-10" as="offset" />
          </mxGeometry>
        </mxCell>
        <mxCell id="B1hULCG9IB6x-jt5RpFV-201" value="&lt;font style=&quot;font-size: 15px;&quot;&gt;1&lt;/font&gt;" style="edgeLabel;html=1;align=center;verticalAlign=middle;resizable=0;points=[];" parent="B1hULCG9IB6x-jt5RpFV-199" connectable="0" vertex="1">
          <mxGeometry x="-0.86" relative="1" as="geometry">
            <mxPoint y="16" as="offset" />
          </mxGeometry>
        </mxCell>
        <mxCell id="B1hULCG9IB6x-jt5RpFV-206" style="edgeStyle=orthogonalEdgeStyle;rounded=0;orthogonalLoop=1;jettySize=auto;html=1;entryX=0;entryY=0.5;entryDx=0;entryDy=0;endArrow=none;endFill=0;endSize=15;startSize=15;startArrow=none;startFill=0;exitX=0.75;exitY=1;exitDx=0;exitDy=0;" parent="WIyWlLk6GJQsqaUBKTNV-1" source="B1hULCG9IB6x-jt5RpFV-188" target="B1hULCG9IB6x-jt5RpFV-177" edge="1">
          <mxGeometry relative="1" as="geometry">
            <mxPoint x="198" y="1367" as="sourcePoint" />
            <mxPoint x="195" y="1230" as="targetPoint" />
          </mxGeometry>
        </mxCell>
        <mxCell id="B1hULCG9IB6x-jt5RpFV-207" value="&lt;font style=&quot;font-size: 15px;&quot;&gt;1&lt;/font&gt;" style="edgeLabel;html=1;align=center;verticalAlign=middle;resizable=0;points=[];" parent="B1hULCG9IB6x-jt5RpFV-206" connectable="0" vertex="1">
          <mxGeometry x="0.9441" y="-1" relative="1" as="geometry">
            <mxPoint x="-7" y="-2" as="offset" />
          </mxGeometry>
        </mxCell>
        <mxCell id="B1hULCG9IB6x-jt5RpFV-208" value="&lt;font style=&quot;font-size: 15px;&quot;&gt;0..*&lt;/font&gt;" style="edgeLabel;html=1;align=center;verticalAlign=middle;resizable=0;points=[];" parent="B1hULCG9IB6x-jt5RpFV-206" connectable="0" vertex="1">
          <mxGeometry x="-0.86" relative="1" as="geometry">
            <mxPoint x="-1" y="-3" as="offset" />
          </mxGeometry>
        </mxCell>
        <mxCell id="XG-66urUs-drCNg23yl3-7" style="edgeStyle=orthogonalEdgeStyle;rounded=0;orthogonalLoop=1;jettySize=auto;html=1;endArrow=none;endFill=0;endSize=15;exitX=0.75;exitY=1;exitDx=0;exitDy=0;startSize=15;startArrow=none;startFill=0;entryX=0.5;entryY=1;entryDx=0;entryDy=0;" parent="WIyWlLk6GJQsqaUBKTNV-1" source="B1hULCG9IB6x-jt5RpFV-17" target="B1hULCG9IB6x-jt5RpFV-188" edge="1">
          <mxGeometry relative="1" as="geometry">
            <mxPoint x="1345" y="993" as="sourcePoint" />
            <mxPoint x="190" y="1404" as="targetPoint" />
            <Array as="points">
              <mxPoint x="1379" y="1685" />
              <mxPoint x="185" y="1685" />
            </Array>
          </mxGeometry>
        </mxCell>
        <mxCell id="XG-66urUs-drCNg23yl3-8" value="&lt;font style=&quot;font-size: 15px;&quot;&gt;0..*&lt;/font&gt;" style="edgeLabel;html=1;align=center;verticalAlign=middle;resizable=0;points=[];" parent="XG-66urUs-drCNg23yl3-7" connectable="0" vertex="1">
          <mxGeometry x="0.9441" y="-1" relative="1" as="geometry">
            <mxPoint y="-31" as="offset" />
          </mxGeometry>
        </mxCell>
        <mxCell id="XG-66urUs-drCNg23yl3-9" value="&lt;font style=&quot;font-size: 15px;&quot;&gt;0..*&lt;/font&gt;" style="edgeLabel;html=1;align=center;verticalAlign=middle;resizable=0;points=[];" parent="XG-66urUs-drCNg23yl3-7" connectable="0" vertex="1">
          <mxGeometry x="-0.86" relative="1" as="geometry">
            <mxPoint x="-1" y="-124" as="offset" />
          </mxGeometry>
        </mxCell>
        <mxCell id="XG-66urUs-drCNg23yl3-10" style="edgeStyle=orthogonalEdgeStyle;rounded=0;orthogonalLoop=1;jettySize=auto;html=1;endArrow=none;endFill=0;endSize=15;exitX=0.75;exitY=1;exitDx=0;exitDy=0;startSize=15;startArrow=none;startFill=0;entryX=0.25;entryY=1;entryDx=0;entryDy=0;" parent="WIyWlLk6GJQsqaUBKTNV-1" source="ns7HTszegkIX43-I1-Sy-0" target="B1hULCG9IB6x-jt5RpFV-188" edge="1">
          <mxGeometry relative="1" as="geometry">
            <mxPoint x="1396" y="993" as="sourcePoint" />
            <mxPoint x="195" y="1400" as="targetPoint" />
            <Array as="points">
              <mxPoint x="1724" y="1719" />
              <mxPoint x="145" y="1719" />
            </Array>
          </mxGeometry>
        </mxCell>
        <mxCell id="XG-66urUs-drCNg23yl3-11" value="&lt;font style=&quot;font-size: 15px;&quot;&gt;0..*&lt;/font&gt;" style="edgeLabel;html=1;align=center;verticalAlign=middle;resizable=0;points=[];" parent="XG-66urUs-drCNg23yl3-10" connectable="0" vertex="1">
          <mxGeometry x="0.9441" y="-1" relative="1" as="geometry">
            <mxPoint y="-31" as="offset" />
          </mxGeometry>
        </mxCell>
        <mxCell id="XG-66urUs-drCNg23yl3-12" value="&lt;font style=&quot;font-size: 15px;&quot;&gt;0..*&lt;/font&gt;" style="edgeLabel;html=1;align=center;verticalAlign=middle;resizable=0;points=[];" parent="XG-66urUs-drCNg23yl3-10" connectable="0" vertex="1">
          <mxGeometry x="-0.86" relative="1" as="geometry">
            <mxPoint x="-1" y="-148" as="offset" />
          </mxGeometry>
        </mxCell>
      </root>
    </mxGraphModel>
  </diagram>
</mxfile>
